<?xml version="1.0" standalone="no"?>
<!DOCTYPE svg PUBLIC "-//W3C//DTD SVG 20010904//EN"
 "http://www.w3.org/TR/2001/REC-SVG-20010904/DTD/svg10.dtd">
<svg version="1.0" xmlns="http://www.w3.org/2000/svg"
 width="436.000000pt" height="394.000000pt" viewBox="0 0 436.000000 394.000000"
 preserveAspectRatio="xMidYMid meet">
<metadata>
Created by potrace 1.16, written by Peter Selinger 2001-2019
</metadata>
<g transform="translate(0.000000,394.000000) scale(0.100000,-0.100000)"
fill="#000000" stroke="none">
<path d="M2020 3803 c-396 -40 -808 -247 -1081 -542 -211 -229 -352 -497 -425
-806 -27 -114 -28 -132 -29 -360 0 -215 2 -251 24 -350 47 -219 131 -425 247
-603 252 -387 645 -654 1110 -753 96 -21 136 -24 334 -24 192 1 241 4 331 22
689 142 1213 654 1365 1333 26 116 28 141 29 350 0 196 -3 240 -23 338 -110
546 -441 978 -933 1223 -255 127 -491 181 -779 177 -74 0 -151 -3 -170 -5z
m493 -123 c327 -64 599 -211 837 -449 278 -279 433 -606 471 -994 75 -776
-418 -1498 -1170 -1712 -156 -45 -264 -59 -446 -59 -304 0 -552 64 -804 209
-417 239 -699 633 -793 1109 -30 151 -32 443 -4 591 40 215 130 435 257 625
86 129 301 344 429 428 205 136 452 233 660 261 47 6 96 13 110 15 68 12 350
-3 453 -24z"/>
<path d="M1835 3570 c-213 -55 -386 -136 -550 -258 -60 -45 -215 -191 -215
-203 0 -3 57 -39 128 -79 198 -114 322 -199 509 -348 l93 -73 48 40 c27 23 58
41 70 41 20 0 114 -99 157 -164 13 -19 26 -24 78 -28 158 -13 219 -106 218
-333 0 -162 -46 -285 -145 -392 -69 -75 -145 -115 -235 -122 l-66 -6 -18 -85
c-24 -114 -19 -256 10 -322 38 -84 104 -106 205 -68 173 65 370 348 452 650
57 210 42 474 -40 715 -31 93 -110 266 -154 336 -16 27 -30 56 -30 64 0 8 23
26 50 40 28 14 50 28 50 31 0 11 -140 203 -214 294 -135 165 -258 300 -274
299 -10 0 -66 -13 -127 -29z"/>
<path d="M2080 2441 c-117 -36 -231 -174 -260 -318 -7 -31 -10 -98 -8 -147 5
-112 33 -181 91 -231 36 -31 47 -35 97 -35 44 0 65 6 101 28 57 37 131 119
158 177 52 110 70 281 42 393 -26 104 -123 162 -221 133z"/>
<path d="M2397 1331 c-42 -64 -127 -143 -195 -181 -34 -19 -62 -41 -62 -49 0
-37 216 -367 323 -490 l27 -33 68 16 c38 8 115 32 173 52 155 53 344 157 312
170 -6 3 -58 36 -115 73 -168 111 -333 266 -448 421 -23 30 -45 56 -49 58 -4
1 -20 -15 -34 -37z"/>
</g>
</svg>
